<svg width="16" height="16" viewBox="0 0 16 16" fill="none" xmlns="http://www.w3.org/2000/svg">
<rect width="16" height="16" fill="url(#paint0_linear)"/>
<path d="M12.3137 10.6344C12.0862 10.0955 11.756 9.60599 11.3416 9.19316C10.9285 8.77915 10.4391 8.44905 9.90043 8.22111C9.8956 8.21869 9.89078 8.21749 9.88596 8.21507C10.6373 7.67236 11.1258 6.78834 11.1258 5.79095C11.1258 4.13869 9.78706 2.8 8.1348 2.8C6.48254 2.8 5.14385 4.13869 5.14385 5.79095C5.14385 6.78834 5.63229 7.67236 6.38365 8.21628C6.37882 8.21869 6.374 8.2199 6.36917 8.22231C5.82887 8.45025 5.34405 8.77709 4.92797 9.19437C4.51395 9.60752 4.18385 10.0969 3.95591 10.6356C3.73197 11.1629 3.6112 11.7283 3.60013 12.3011C3.59981 12.314 3.60206 12.3268 3.60677 12.3388C3.61147 12.3508 3.61853 12.3617 3.62752 12.3709C3.63651 12.3801 3.64726 12.3874 3.65912 12.3924C3.67099 12.3974 3.68373 12.4 3.69661 12.4H4.42023C4.47329 12.4 4.5155 12.3578 4.51671 12.3059C4.54083 11.3749 4.9147 10.5029 5.5756 9.84201C6.25942 9.15819 7.16756 8.78191 8.1348 8.78191C9.10204 8.78191 10.0102 9.15819 10.694 9.84201C11.3549 10.5029 11.7288 11.3749 11.7529 12.3059C11.7541 12.359 11.7963 12.4 11.8494 12.4H12.573C12.5859 12.4 12.5986 12.3974 12.6105 12.3924C12.6223 12.3874 12.6331 12.3801 12.6421 12.3709C12.6511 12.3617 12.6581 12.3508 12.6628 12.3388C12.6675 12.3268 12.6698 12.314 12.6695 12.3011C12.6574 11.7246 12.538 11.1638 12.3137 10.6344V10.6344ZM8.1348 7.86533C7.58123 7.86533 7.06023 7.64945 6.66827 7.25749C6.27631 6.86553 6.06043 6.34452 6.06043 5.79095C6.06043 5.23739 6.27631 4.71638 6.66827 4.32442C7.06023 3.93246 7.58123 3.71658 8.1348 3.71658C8.68837 3.71658 9.20937 3.93246 9.60133 4.32442C9.99329 4.71638 10.2092 5.23739 10.2092 5.79095C10.2092 6.34452 9.99329 6.86553 9.60133 7.25749C9.20937 7.64945 8.68837 7.86533 8.1348 7.86533Z" fill="#BCBCBF"/>
<defs>
<linearGradient id="paint0_linear" x1="0" y1="0" x2="16" y2="16" gradientUnits="userSpaceOnUse">
<stop stop-color="#1E2029"/>
<stop offset="1" stop-color="#121319"/>
</linearGradient>
</defs>
</svg>
