<svg width="16" height="16" viewBox="0 0 16 16" fill="none" xmlns="http://www.w3.org/2000/svg">
<g clip-path="url(#clip0_102_69)">
<rect width="16" height="16" fill="#242424"/>
<path fill-rule="evenodd" clip-rule="evenodd" d="M2.81621 8.43722H5.61632L4.21647 4.21057L2.81621 8.43722ZM3.88235 3.2L1.6001 10.084L2.45588 9.52504H5.9768L7.06231 12.8H11.1918C13.5792 12.8 14.4188 12.0583 14.3998 10.0673C14.3801 8.07544 13.0531 7.88284 12.6713 7.77407C12.9438 7.62301 13.756 7.23101 13.7625 5.77253C13.7683 4.31557 13.0847 3.2 9.74342 3.2H8.69507V8.99784L9.29261 8.43722H10.6621C11.4867 8.43722 12.4764 8.68723 12.4617 10.0673C12.4478 11.4465 11.6619 11.6474 10.6992 11.7139H9.1262L6.30487 3.2H3.88235ZM9.29261 7.35111H10.3067C11.1431 7.35111 11.8479 6.92436 11.8479 5.82843C11.8479 4.59574 10.8 4.28685 9.93759 4.28685H9.29261V7.35111Z" fill="#FAFAFA"/>
</g>
<defs>
<clipPath id="clip0_102_69">
<rect width="16" height="16" fill="white"/>
</clipPath>
</defs>
</svg>
