<svg width="16" height="16" viewBox="0 0 16 16" fill="none" xmlns="http://www.w3.org/2000/svg">
<g clip-path="url(#clip0_102_69)">
<g clip-path="url(#clip1_102_69)">
<path fill-rule="evenodd" clip-rule="evenodd" d="M0 2.37955C0 1.74846 0.250702 1.14321 0.696955 0.696955C1.14321 0.250702 1.74846 0 2.37955 0H7.27509C7.90586 0.00034505 8.51068 0.25112 8.95664 0.697209L15.3021 7.04268C15.7482 7.48891 15.9988 8.09405 15.9988 8.72503C15.9988 9.356 15.7482 9.96114 15.3021 10.4074L10.4082 15.3029C10.1872 15.5239 9.92486 15.6992 9.63613 15.8188C9.3474 15.9384 9.03794 16 8.72542 16C8.4129 16 8.10344 15.9384 7.81471 15.8188C7.52599 15.6992 7.26365 15.5239 7.04268 15.3029L0.697209 8.95743C0.250925 8.51128 0.000134772 7.90613 0 7.27509V2.37955ZM3.96592 3.17274C3.75556 3.17274 3.55381 3.2563 3.40506 3.40506C3.2563 3.55381 3.17274 3.75556 3.17274 3.96592C3.17274 4.17629 3.2563 4.37804 3.40506 4.52679C3.55381 4.67554 3.75556 4.7591 3.96592 4.7591C4.17629 4.7591 4.37883 4.67554 4.52758 4.52679C4.67633 4.37804 4.7599 4.17629 4.7599 3.96592C4.7599 3.75556 4.67633 3.55381 4.52758 3.40506C4.37883 3.2563 4.17629 3.17274 3.96592 3.17274Z" fill="#6366F1"/>
</g>
</g>
<defs>
<clipPath id="clip0_102_69">
<rect width="16" height="16" fill="white"/>
</clipPath>
<clipPath id="clip1_102_69">
<rect width="16" height="16" fill="white"/>
</clipPath>
</defs>
</svg>
